<svg width="16" height="15" viewBox="0 0 16 15" fill="none" xmlns="http://www.w3.org/2000/svg">
<path d="M8.00002 15C6.98891 15 6.03613 14.8083 5.14169 14.425C4.24724 14.0417 3.46946 13.5195 2.80835 12.8583C2.14724 12.1972 1.62502 11.4195 1.24169 10.525C0.858354 9.63057 0.666687 8.67779 0.666687 7.66668C0.666687 6.64445 0.858354 5.6889 1.24169 4.80001C1.62502 3.91112 2.14724 3.13612 2.80835 2.47501C3.46946 1.8139 4.24724 1.29168 5.14169 0.908343C6.03613 0.52501 6.98891 0.333344 8.00002 0.333344C9.02224 0.333344 9.9778 0.52501 10.8667 0.908343C11.7556 1.29168 12.5306 1.8139 13.1917 2.47501C13.8528 3.13612 14.375 3.91112 14.7584 4.80001C15.1417 5.6889 15.3334 6.64445 15.3334 7.66668C15.3334 8.67779 15.1417 9.63057 14.7584 10.525C14.375 11.4195 13.8528 12.1972 13.1917 12.8583C12.5306 13.5195 11.7556 14.0417 10.8667 14.425C9.9778 14.8083 9.02224 15 8.00002 15ZM7.58335 12.85C7.69446 12.9611 7.82224 13.0167 7.96669 13.0167C8.11113 13.0167 8.23891 12.9611 8.35002 12.85L13.15 8.05001C13.2611 7.9389 13.3167 7.80557 13.3167 7.65001C13.3167 7.49445 13.2611 7.36112 13.15 7.25001L8.35002 2.45001C8.23891 2.3389 8.11113 2.28334 7.96669 2.28334C7.82224 2.28334 7.69446 2.3389 7.58335 2.45001L2.78335 7.25001C2.67224 7.36112 2.61669 7.49445 2.61669 7.65001C2.61669 7.80557 2.67224 7.9389 2.78335 8.05001L7.58335 12.85ZM5.31669 9.65001V6.98334C5.31669 6.78334 5.3778 6.62223 5.50002 6.50001C5.62224 6.37779 5.78335 6.31668 5.98335 6.31668H8.75002L8.05002 5.58334L8.98335 4.65001L11.3167 6.98334L8.98335 9.31668L8.05002 8.38334L8.75002 7.65001H6.65002V9.65001H5.31669ZM8.00002 13.6667C9.6778 13.6667 11.0972 13.0861 12.2584 11.925C13.4195 10.7639 14 9.34445 14 7.66668C14 5.9889 13.4195 4.56945 12.2584 3.40834C11.0972 2.24723 9.6778 1.66668 8.00002 1.66668C6.32224 1.66668 4.9028 2.24723 3.74169 3.40834C2.58058 4.56945 2.00002 5.9889 2.00002 7.66668C2.00002 9.34445 2.58058 10.7639 3.74169 11.925C4.9028 13.0861 6.32224 13.6667 8.00002 13.6667Z" fill="#1C1B1F"/>
</svg>
